<svg viewBox="0 0 135.81 22.48" xmlns="http://www.w3.org/2000/svg"><g fill="#e8ab1c"><path d="m12.68.57 2.85 5.78a1 1 0 0 0 .76.55l6.38.93a1 1 0 0 1 .56 1.73l-4.61 4.44a1 1 0 0 0 -.29.9l1.09 6.35a1 1 0 0 1 -1.47 1.07l-5.7-3a1 1 0 0 0 -.94 0l-5.7 3a1 1 0 0 1 -1.49-1.02l1.09-6.35a1 1 0 0 0 -.29-.9l-4.61-4.5a1 1 0 0 1 .56-1.73l6.37-.92a1 1 0 0 0 .76-.56l2.86-5.77a1 1 0 0 1 1.82 0z"/><path d="m40.75.57 2.85 5.77a1 1 0 0 0 .76.55l6.38.93a1 1 0 0 1 .56 1.73l-4.62 4.45a1 1 0 0 0 -.29.9l1.09 6.35a1 1 0 0 1 -1.48 1.12l-5.7-3a1 1 0 0 0 -.94 0l-5.7 3a1 1 0 0 1 -1.47-1.07l1.09-6.35a1 1 0 0 0 -.28-.95l-4.61-4.5a1 1 0 0 1 .56-1.73l6.38-.93a1 1 0 0 0 .76-.55l2.84-5.72a1 1 0 0 1 1.82 0z"/><path d="m68.81.57 2.85 5.78a1 1 0 0 0 .76.55l6.38.93a1 1 0 0 1 .56 1.73l-4.61 4.44a1 1 0 0 0 -.29.9l1.09 6.35a1 1 0 0 1 -1.47 1.07l-5.7-3a1 1 0 0 0 -.94 0l-5.7 3a1 1 0 0 1 -1.47-1.07l1.09-6.35a1 1 0 0 0 -.29-.9l-4.61-4.5a1 1 0 0 1 .54-1.68l6.38-.93a1 1 0 0 0 .76-.55l2.86-5.77a1 1 0 0 1 1.81 0z"/><path d="m96.88.57 2.85 5.78a1 1 0 0 0 .76.55l6.38.93a1 1 0 0 1 .56 1.73l-4.61 4.44a1 1 0 0 0 -.29.9l1.09 6.35a1 1 0 0 1 -1.47 1.07l-5.7-3a1 1 0 0 0 -.94 0l-5.7 3a1 1 0 0 1 -1.47-1.07l1.09-6.35a1 1 0 0 0 -.29-.9l-4.61-4.5a1 1 0 0 1 .56-1.73l6.38-.93a1 1 0 0 0 .76-.55l2.84-5.72a1 1 0 0 1 1.81 0z"/><path d="m125 .57 2.85 5.78a1 1 0 0 0 .76.55l6.38.93a1 1 0 0 1 .56 1.73l-4.66 4.44a1 1 0 0 0 -.29.9l1.09 6.35a1 1 0 0 1 -1.47 1.07l-5.7-3a1 1 0 0 0 -.94 0l-5.7 3a1 1 0 0 1 -1.47-1.07l1.09-6.35a1 1 0 0 0 -.29-.9l-4.61-4.5a1 1 0 0 1 .56-1.73l6.38-.93a1 1 0 0 0 .76-.55l2.83-5.72a1 1 0 0 1 1.87 0z"/></g></svg>